<svg width="102" height="104" viewBox="0 0 102 104" fill="none" xmlns="http://www.w3.org/2000/svg">
<path d="M17.9922 20.6406V103.664H101.016V20.6406H17.9922ZM98.3711 101.02H20.582V23.2305H98.3711V101.02Z" fill="#3C6CA8"/>
<path d="M0.152344 0.972656V40.3008H38.9688V0.972656H0.152344ZM36.3242 37.6641H2.73828V3.55469H36.3242V37.6641Z" fill="#3C6CA8"/>
<path d="M0.152344 51.9844V91.3125H38.9688V51.9844H0.152344ZM36.3242 88.6758H2.73828V54.5664H36.3242V88.6758Z" fill="#3C6CA8"/>
<path d="M51.8516 0.972656V40.3008H90.668V0.972656H51.8516ZM88.0234 37.6641H54.4414V3.55469H88.0234V37.6641Z" fill="#3C6CA8"/>
<path d="M51.8516 51.9844V91.3125H90.668V51.9844H51.8516ZM88.0234 88.6758H54.4414V54.5664H88.0234V88.6758Z" fill="#3C6CA8"/>
</svg>
